<?xml version="1.0" encoding="iso-8859-1"?>
<!-- Generator: Adobe Illustrator 19.0.0, SVG Export Plug-In . SVG Version: 6.00 Build 0)  -->
<svg version="1.1" id="Capa_1" xmlns="http://www.w3.org/2000/svg" xmlns:xlink="http://www.w3.org/1999/xlink" x="0px" y="0px"
	 viewBox="0 0 512 512" style="enable-background:new 0 0 512 512;" xml:space="preserve">
<g>
	<g>
		<path d="M467,199.665H45c-24.813,0-45,20.187-45,45V363.19c0,8.284,6.716,15,15,15h482c8.284,0,15-6.716,15-15V244.665
			C512,219.852,491.813,199.665,467,199.665z M108.818,317.915c-23.773,0-43.072-18.96-43.649-42.609
			c-0.206-8.429,6.58-15.366,14.996-15.366h57.308c8.432,0,15.201,6.953,14.996,15.366
			C151.89,298.973,132.571,317.915,108.818,317.915z M320.03,303.927H191.97c-8.284,0-15-6.716-15-15s6.716-15,15-15h128.06
			c8.284,0,15,6.716,15,15S328.314,303.927,320.03,303.927z M403.182,317.915c-23.817,0-43.074-19.003-43.648-42.61
			c-0.206-8.429,6.579-15.365,14.995-15.365h57.308c8.431,0,15.2,6.953,14.995,15.366
			C446.253,298.973,426.935,317.915,403.182,317.915z"/>
	</g>
</g>
<g>
	<g>
		<path d="M343.424,408.189V420c0,19.299,15.701,35,35,35h49.517c19.299,0,35-15.701,35-35v-11.811H343.424z"/>
	</g>
</g>
<g>
	<g>
		<path d="M49.06,408.189V420c0,19.299,15.701,35,35,35h49.516c19.299,0,35-15.701,35-35v-11.811H49.06z"/>
	</g>
</g>
<g>
	<g>
		<path d="M384.283,65.435c-2.512-5.16-7.747-8.435-13.486-8.435H141.203c-5.739,0-10.975,3.274-13.487,8.435l-50.74,104.23h358.048
			L384.283,65.435z"/>
	</g>
</g>
<g>
</g>
<g>
</g>
<g>
</g>
<g>
</g>
<g>
</g>
<g>
</g>
<g>
</g>
<g>
</g>
<g>
</g>
<g>
</g>
<g>
</g>
<g>
</g>
<g>
</g>
<g>
</g>
<g>
</g>
</svg>
